HIERARCHY
ROOT Root
{
  OFFSET 0.0 0.0 0.0
  CHANNELS 6 Xposition Yposition Zposition Zrotation Yrotation Xrotation
  JOINT Hips
  {
    OFFSET 0.0 100.0 0.0
    CHANNELS 6 Xposition Yposition Zposition Zrotation Yrotation Xrotation
    JOINT Spine1
    {
      OFFSET 5.003913 -0.037094 -0.013727
      CHANNELS 3 Zrotation Yrotation Xrotation
      JOINT Spine2
      {
        OFFSET 7.125363 -1e-06 0.0
        CHANNELS 3 Zrotation Yrotation Xrotation
        JOINT Chest
        {
          OFFSET 7.594027 1e-06 0.0
          CHANNELS 3 Zrotation Yrotation Xrotation
          JOINT Neck1
          {
            OFFSET 26.313086 -0.460272 -0.181672
            CHANNELS 3 Zrotation Yrotation Xrotation
            JOINT Neck2
            {
              OFFSET 8.045911 0.0 0.0
              CHANNELS 3 Zrotation Yrotation Xrotation
              JOINT Head
              {
                OFFSET 6.432774 0.0 0.0
                CHANNELS 3 Zrotation Yrotation Xrotation
                JOINT HeadEnd
                {
                  OFFSET 16.169773 0.06451 0.00362
                  CHANNELS 3 Zrotation Yrotation Xrotation
                }
                JOINT Jaw
                {
                  OFFSET 0.108741 3.12938 0.002639
                  CHANNELS 3 Zrotation Yrotation Xrotation
                }
                JOINT LeftEye
                {
                  OFFSET 4.45173 8.166359 3.206392
                  CHANNELS 3 Zrotation Yrotation Xrotation
                }
                JOINT RightEye
                {
                  OFFSET 4.436895 8.135758 -3.222429
                  CHANNELS 3 Zrotation Yrotation Xrotation
                }
              }
            }
          }
          JOINT LeftShoulder
          {
            OFFSET 23.218927 5.195579 1.621656
            CHANNELS 3 Zrotation Yrotation Xrotation
            JOINT LeftArm
            {
              OFFSET 15.902118 2e-06 -2e-06
              CHANNELS 3 Zrotation Yrotation Xrotation
              JOINT LeftForeArm
              {
                OFFSET 28.739307 0.0 -1e-06
                CHANNELS 3 Zrotation Yrotation Xrotation
                JOINT LeftHand
                {
                  OFFSET 27.093981 -4e-06 0.0
                  CHANNELS 3 Zrotation Yrotation Xrotation
                  JOINT LeftHandThumb1
                  {
                    OFFSET 2.276781 3.380274 0.83384
                    CHANNELS 3 Zrotation Yrotation Xrotation
                    JOINT LeftHandThumb2
                    {
                      OFFSET 4.705309 -1e-06 -1e-06
                      CHANNELS 3 Zrotation Yrotation Xrotation
                      JOINT LeftHandThumb3
                      {
                        OFFSET 2.798515 0.0 3e-06
                        CHANNELS 3 Zrotation Yrotation Xrotation
                        JOINT LeftHandThumbEnd
                        {
                          OFFSET 3.180793 4e-06 -4e-06
                          CHANNELS 3 Zrotation Yrotation Xrotation
                        }
                      }
                    }
                  }
                  JOINT LeftHandIndex1
                  {
                    OFFSET 3.247786 2.352677 0.137192
                    CHANNELS 3 Zrotation Yrotation Xrotation
                    JOINT LeftHandIndex2
                    {
                      OFFSET 6.367095 1e-06 0.0
                      CHANNELS 3 Zrotation Yrotation Xrotation
                      JOINT LeftHandIndex3
                      {
                        OFFSET 3.662364 0.0 0.0
                        CHANNELS 3 Zrotation Yrotation Xrotation
                        JOINT LeftHandIndex4
                        {
                          OFFSET 2.329242 4e-06 -4e-06
                          CHANNELS 3 Zrotation Yrotation Xrotation
                          JOINT LeftHandIndexEnd
                          {
                            OFFSET 2.767823 1e-06 0.0
                            CHANNELS 3 Zrotation Yrotation Xrotation
                          }
                        }
                      }
                    }
                  }
                  JOINT LeftHandMiddle1
                  {
                    OFFSET 3.163612 0.945023 -0.406112
                    CHANNELS 3 Zrotation Yrotation Xrotation
                    JOINT LeftHandMiddle2
                    {
                      OFFSET 6.276789 3e-06 0.0
                      CHANNELS 3 Zrotation Yrotation Xrotation
                      JOINT LeftHandMiddle3
                      {
                        OFFSET 4.35652 -1e-06 4e-06
                        CHANNELS 3 Zrotation Yrotation Xrotation
                        JOINT LeftHandMiddle4
                        {
                          OFFSET 2.996877 0.0 8e-06
                          CHANNELS 3 Zrotation Yrotation Xrotation
                          JOINT LeftHandMiddleEnd
                          {
                            OFFSET 2.323256 3e-06 -4e-06
                            CHANNELS 3 Zrotation Yrotation Xrotation
                          }
                        }
                      }
                    }
                  }
                  JOINT LeftHandRing1
                  {
                    OFFSET 2.882606 -0.309162 0.107445
                    CHANNELS 3 Zrotation Yrotation Xrotation
                    JOINT LeftHandRing2
                    {
                      OFFSET 6.033198 0.0 4e-06
                      CHANNELS 3 Zrotation Yrotation Xrotation
                      JOINT LeftHandRing3
                      {
                        OFFSET 4.350578 3e-06 0.0
                        CHANNELS 3 Zrotation Yrotation Xrotation
                        JOINT LeftHandRing4
                        {
                          OFFSET 2.651321 2e-06 -7e-06
                          CHANNELS 3 Zrotation Yrotation Xrotation
                          JOINT LeftHandRingEnd
                          {
                            OFFSET 1.937663 1e-06 -4e-06
                            CHANNELS 3 Zrotation Yrotation Xrotation
                          }
                        }
                      }
                    }
                  }
                  JOINT LeftHandPinky1
                  {
                    OFFSET 2.865315 -1.525436 0.575687
                    CHANNELS 3 Zrotation Yrotation Xrotation
                    JOINT LeftHandPinky2
                    {
                      OFFSET 5.54936 1e-06 -8e-06
                      CHANNELS 3 Zrotation Yrotation Xrotation
                      JOINT LeftHandPinky3
                      {
                        OFFSET 3.070974 0.0 -4e-06
                        CHANNELS 3 Zrotation Yrotation Xrotation
                        JOINT LeftHandPinky4
                        {
                          OFFSET 1.549672 1e-06 0.0
                          CHANNELS 3 Zrotation Yrotation Xrotation
                          JOINT LeftHandPinkyEnd
                          {
                            OFFSET 1.952123 0.0 0.0
                            CHANNELS 3 Zrotation Yrotation Xrotation
                          }
                        }
                      }
                    }
                  }
                }
              }
            }
          }
          JOINT RightShoulder
          {
            OFFSET 23.161716 5.296122 -1.380114
            CHANNELS 3 Zrotation Yrotation Xrotation
            JOINT RightArm
            {
              OFFSET -16.027195 -2e-06 1.1e-05
              CHANNELS 3 Zrotation Yrotation Xrotation
              JOINT RightForeArm
              {
                OFFSET -28.736639 4e-06 2e-06
                CHANNELS 3 Zrotation Yrotation Xrotation
                JOINT RightHand
                {
                  OFFSET -27.133619 6e-06 0.0
                  CHANNELS 3 Zrotation Yrotation Xrotation
                  JOINT RightHandThumb1
                  {
                    OFFSET -2.274328 -3.351035 -0.83067
                    CHANNELS 3 Zrotation Yrotation Xrotation
                    JOINT RightHandThumb2
                    {
                      OFFSET -4.703594 -3e-06 2e-06
                      CHANNELS 3 Zrotation Yrotation Xrotation
                      JOINT RightHandThumb3
                      {
                        OFFSET -2.794935 -4e-06 -3e-06
                        CHANNELS 3 Zrotation Yrotation Xrotation
                        JOINT RightHandThumbEnd
                        {
                          OFFSET -3.183852 4e-06 1e-06
                          CHANNELS 3 Zrotation Yrotation Xrotation
                        }
                      }
                    }
                  }
                  JOINT RightHandIndex1
                  {
                    OFFSET -3.253496 -2.33755 -0.127667
                    CHANNELS 3 Zrotation Yrotation Xrotation
                    JOINT RightHandIndex2
                    {
                      OFFSET -6.344434 0.0 0.0
                      CHANNELS 3 Zrotation Yrotation Xrotation
                      JOINT RightHandIndex3
                      {
                        OFFSET -3.654871 0.0 -8e-06
                        CHANNELS 3 Zrotation Yrotation Xrotation
                        JOINT RightHandIndex4
                        {
                          OFFSET -2.327586 -1e-06 0.0
                          CHANNELS 3 Zrotation Yrotation Xrotation
                          JOINT RightHandIndexEnd
                          {
                            OFFSET -2.770001 3e-06 8e-06
                            CHANNELS 3 Zrotation Yrotation Xrotation
                          }
                        }
                      }
                    }
                  }
                  JOINT RightHandMiddle1
                  {
                    OFFSET -3.168223 -0.944764 0.411762
                    CHANNELS 3 Zrotation Yrotation Xrotation
                    JOINT RightHandMiddle2
                    {
                      OFFSET -6.266691 -1e-06 -4e-06
                      CHANNELS 3 Zrotation Yrotation Xrotation
                      JOINT RightHandMiddle3
                      {
                        OFFSET -4.348901 0.0 0.0
                        CHANNELS 3 Zrotation Yrotation Xrotation
                        JOINT RightHandMiddle4
                        {
                          OFFSET -3.00024 2e-06 -4e-06
                          CHANNELS 3 Zrotation Yrotation Xrotation
                          JOINT RightHandMiddleEnd
                          {
                            OFFSET -2.321477 -4e-06 -4e-06
                            CHANNELS 3 Zrotation Yrotation Xrotation
                          }
                        }
                      }
                    }
                  }
                  JOINT RightHandRing1
                  {
                    OFFSET -2.885654 0.293261 -0.119232
                    CHANNELS 3 Zrotation Yrotation Xrotation
                    JOINT RightHandRing2
                    {
                      OFFSET -6.032835 -1e-06 -4e-06
                      CHANNELS 3 Zrotation Yrotation Xrotation
                      JOINT RightHandRing3
                      {
                        OFFSET -4.33881 0.0 -4e-06
                        CHANNELS 3 Zrotation Yrotation Xrotation
                        JOINT RightHandRing4
                        {
                          OFFSET -2.654903 -4e-06 -4e-06
                          CHANNELS 3 Zrotation Yrotation Xrotation
                          JOINT RightHandRingEnd
                          {
                            OFFSET -1.935122 0.0 4e-06
                            CHANNELS 3 Zrotation Yrotation Xrotation
                          }
                        }
                      }
                    }
                  }
                  JOINT RightHandPinky1
                  {
                    OFFSET -2.866241 1.503904 -0.60527
                    CHANNELS 3 Zrotation Yrotation Xrotation
                    JOINT RightHandPinky2
                    {
                      OFFSET -5.553177 -2e-06 0.0
                      CHANNELS 3 Zrotation Yrotation Xrotation
                      JOINT RightHandPinky3
                      {
                        OFFSET -3.062664 -1e-06 -4e-06
                        CHANNELS 3 Zrotation Yrotation Xrotation
                        JOINT RightHandPinky4
                        {
                          OFFSET -1.546529 2e-06 4e-06
                          CHANNELS 3 Zrotation Yrotation Xrotation
                          JOINT RightHandPinkyEnd
                          {
                            OFFSET -1.952341 0.0 -4e-06
                            CHANNELS 3 Zrotation Yrotation Xrotation
                          }
                        }
                      }
                    }
                  }
                }
              }
            }
          }
        }
      }
    }
    JOINT LeftLeg
    {
      OFFSET -8.443107 2.567604 10.043214
      CHANNELS 3 Zrotation Yrotation Xrotation
      JOINT LeftShin
      {
        OFFSET 43.229198 1e-06 -1e-06
        CHANNELS 3 Zrotation Yrotation Xrotation
        JOINT LeftFoot
        {
          OFFSET 42.298611 1e-06 1e-06
          CHANNELS 3 Zrotation Yrotation Xrotation
          JOINT LeftToeBase
          {
            OFFSET 14.165858 1e-06 0.0
            CHANNELS 3 Zrotation Yrotation Xrotation
            JOINT LeftToeEnd
            {
              OFFSET 6.7141 -0.234461 0.0
              CHANNELS 3 Zrotation Yrotation Xrotation
            }
          }
        }
      }
    }
    JOINT RightLeg
    {
      OFFSET -8.303923 2.592729 -10.047278
      CHANNELS 3 Zrotation Yrotation Xrotation
      JOINT RightShin
      {
        OFFSET -43.369682 0.0 1e-06
        CHANNELS 3 Zrotation Yrotation Xrotation
        JOINT RightFoot
        {
          OFFSET -42.260784 4e-06 2e-06
          CHANNELS 3 Zrotation Yrotation Xrotation
          JOINT RightToeBase
          {
            OFFSET -14.222245 -2e-06 -1e-06
            CHANNELS 3 Zrotation Yrotation Xrotation
            JOINT RightToeEnd
            {
              OFFSET -6.660062 0.232574 -2e-06
              CHANNELS 3 Zrotation Yrotation Xrotation
            }
          }
        }
      }
    }
  }
}
MOTION
Frames: 4
Frame Time: 0.03333333333333333
0.0 0.0 0.0 0.0 -0.0 0.0 6.182422 100.193634 -0.750181 89.686874 -7.810796 104.526939 2.385812 0.466021 0.588386 -10.50561 0.216581 1.747421 20.257854 1.041622 -0.007745 21.732624 -1.807901 2.420006 -2.39863 -1.070986 -2.103762 -26.515913 -1.646978 -3.20138 8e-06 0.0 -1e-06 -0.081568 0.032119 -0.010301 0.082382 0.06155 0.034171 0.105782 -0.008653 -0.057679 -159.785889 -82.727997 173.995102 48.672615 -8.42892 -39.306244 29.966555 -1.590577 -0.73184 -1.585052 16.872253 -70.865791 17.636639 -26.322741 52.411213 -19.466665 -14.395602 29.410398 1e-06 -8.774824 -2e-06 16.683546 -16.375372 5.640373 -0.609777 -1.795655 -3.889329 -4.807091 -11.046814 -2.937851 3e-06 -20.976021 2e-06 -5.019973 -25.033564 -4.031882 6e-06 -0.0 -1e-06 -10.634537 -5.686975 -3.565588 10.573277 -17.922949 -3.1139 1e-06 -13.821213 1e-06 -0.50178 -31.181511 -4.027015 -11.471807 -60.139023 7.625484 -13.982718 -7.150199 -2.875043 13.772734 -8.401493 -3.218242 0.347731 -34.211555 0.77166 -0.963029 -17.733372 2.621021 -1e-06 1e-06 1e-06 -17.346424 -20.095217 -4.201782 21.757568 -1.638376 3.866429 1e-06 -6.338824 2e-06 -1.697591 -22.591749 -6.194006 0.0 -4e-06 -3e-06 -119.802979 -77.994888 -49.376987 81.479233 -24.621075 -17.145845 54.12447 0.702339 0.503263 12.989801 10.162209 -48.54451 22.182114 -20.375891 49.933315 -16.701809 -16.743528 28.476522 -2e-06 -12.6906 1e-06 16.051771 -16.790337 2.710393 -0.105919 -1.513855 -4.275881 -5.039041 -5.612872 -2.953555 3e-06 -11.020523 -1e-06 -6.1113 -15.895334 -3.840471 -0.0 0.0 0.0 -10.28337 -5.680289 -4.341837 11.028292 -11.302404 -2.372632 -1.38427 -14.238581 -6.32012 -0.62544 -26.924187 -3.827603 -4.317507 -49.964741 -2.513062 -13.708525 -7.363477 -3.720937 18.141148 -14.052739 -3.242673 4e-06 -18.787271 -3e-06 -0.429711 -8.456045 2.555501 0.0 0.0 -0.0 -15.923536 -20.094484 -5.473582 30.41921 -7.190823 1.735926 0.0 -8.162925 -1e-06 -1.861903 -22.861469 -6.167943 -2e-06 -2e-06 -1e-06 161.64534 0.26049 -1.326302 12.615719 -0.052956 0.090839 -71.104958 2.120961 -3.221112 -5.369473 1.374447 2.089537 -0.999998 -0.0 0.0 -12.785746 -10.487068 -16.100351 15.267442 0.060995 -0.033732 -75.451675 -8.176577 -12.75313 -5.507348 0.708014 1.668828 -1.000001 0.0 -0.0 
0.0 0.0 0.0 0.0 -0.0 0.0 6.2258 100.194038 -0.74297 89.647324 -7.893467 104.638832 2.402741 0.494236 0.599987 -10.496444 0.229065 1.79366 20.230412 1.037355 0.017808 21.538822 -1.892625 2.414111 -2.394351 -1.096699 -2.130486 -26.70615 -1.583973 -3.338454 5e-06 -0.0 1e-06 -0.084596 0.030262 -0.001386 0.087475 0.060201 0.044504 0.112031 -0.011141 -0.049789 -160.046463 -82.6745 174.155441 48.751431 -8.340972 -39.607197 30.117367 -1.627016 -0.707442 -1.703462 17.014387 -70.462456 17.636627 -26.322746 52.411213 -19.466663 -14.395597 29.410395 1e-06 -8.774822 -2e-06 16.67964 -16.378054 5.62915 -0.609777 -1.795653 -3.889328 -4.807089 -11.046816 -2.93785 3e-06 -20.976021 2e-06 -5.019973 -25.033564 -4.031881 6e-06 -1e-06 0.0 -10.634535 -5.686974 -3.565589 10.573274 -17.922951 -3.113899 1e-06 -13.821213 2e-06 -0.501781 -31.181511 -4.027015 -11.480606 -60.154297 7.634325 -13.982718 -7.150199 -2.875043 13.772729 -8.401495 -3.21824 0.34773 -34.211559 0.771656 -0.963031 -17.733376 2.621021 0.0 -0.0 1e-06 -17.346424 -20.095224 -4.20178 21.757559 -1.638377 3.866428 1e-06 -6.338824 2e-06 -1.697591 -22.591751 -6.194007 -0.0 -4e-06 -2e-06 -120.211182 -77.842392 -48.999653 81.853119 -24.565271 -17.34758 53.918339 0.750404 0.494029 12.86285 10.05677 -48.286255 22.182116 -20.3759 49.933319 -16.70182 -16.743534 28.476538 -4e-06 -12.690605 1e-06 16.074142 -16.842842 2.743754 -0.105919 -1.513855 -4.275881 -5.03904 -5.612872 -2.953557 4e-06 -11.020526 -2e-06 -6.111297 -15.895334 -3.84047 0.0 -2e-06 -0.0 -10.283371 -5.68029 -4.341839 11.028296 -11.302408 -2.372633 -1.384268 -14.238585 -6.320121 -0.625438 -26.924194 -3.827603 -4.366214 -49.981525 -2.47401 -13.708526 -7.363476 -3.720938 18.141153 -14.052744 -3.242676 7e-06 -18.787275 -3e-06 -0.429711 -8.456045 2.555504 0.0 2e-06 -0.0 -15.923538 -20.094484 -5.473583 30.419218 -7.190827 1.735922 1e-06 -8.162929 0.0 -1.861903 -22.861479 -6.167942 -1e-06 -4e-06 -1e-06 161.532684 0.288541 -1.396998 12.64395 -0.057571 0.090989 -71.104904 2.240511 -3.13777 -5.354646 1.374862 2.088749 -0.999999 -0.0 -0.0 -12.793355 -10.50603 -16.201576 15.221738 0.062444 -0.040407 -75.457405 -8.17768 -12.770831 -5.536904 0.703987 1.662619 -1.000003 0.0 0.0 
0.0 0.0 0.0 0.0 -0.0 0.0 6.271639 100.19194 -0.725356 89.597931 -7.977683 104.743744 2.410983 0.522228 0.601165 -10.49537 0.24011 1.838534 20.201349 1.025819 0.025394 21.335176 -1.906499 2.418407 -2.400966 -1.130139 -2.179419 -26.942789 -1.540965 -3.484035 6e-06 -0.0 -0.0 -0.088192 0.028766 0.00432 0.080759 0.05674 0.049789 0.103515 -0.010375 -0.043695 -160.126038 -82.655266 174.166138 48.804379 -8.327794 -39.961098 30.26745 -1.636568 -0.666998 -1.820248 17.166437 -70.14547 17.636623 -26.322718 52.411179 -19.46666 -14.395596 29.410385 -1e-06 -8.774819 -0.0 16.707977 -16.412672 5.601804 -0.609775 -1.795651 -3.889327 -4.807087 -11.046814 -2.937849 5e-06 -20.976013 -0.0 -5.019969 -25.033556 -4.031882 6e-06 0.0 -1e-06 -10.634531 -5.686967 -3.565588 10.573272 -17.922947 -3.113899 3e-06 -13.821209 -1e-06 -0.501777 -31.181498 -4.027016 -11.44073 -60.125576 7.599997 -13.982711 -7.150194 -2.875043 13.772726 -8.401493 -3.218241 0.347734 -34.211544 0.77165 -0.963029 -17.733366 2.62102 -0.0 -0.0 0.0 -17.346413 -20.095213 -4.201781 21.757555 -1.638375 3.866426 2e-06 -6.338823 1e-06 -1.697587 -22.59174 -6.194006 0.0 -4e-06 -2e-06 -120.740753 -77.833229 -48.491478 82.168716 -24.642673 -17.662865 53.825138 0.725502 0.480932 12.717334 10.039782 -48.000931 22.18211 -20.375891 49.933323 -16.701809 -16.743526 28.476528 -4e-06 -12.690598 1e-06 16.089659 -16.922802 2.765354 -0.105919 -1.513855 -4.27588 -5.039039 -5.612868 -2.953557 5e-06 -11.020519 -3e-06 -6.111293 -15.895328 -3.840472 -1e-06 -0.0 0.0 -10.283367 -5.680288 -4.341839 11.028291 -11.302402 -2.372631 -1.384268 -14.238577 -6.320122 -0.625435 -26.924177 -3.827602 -4.42306 -50.019863 -2.430633 -13.708521 -7.363473 -3.72094 18.141146 -14.052738 -3.242674 7e-06 -18.787266 -4e-06 -0.429711 -8.456043 2.555503 0.0 2e-06 1e-06 -15.923528 -20.094477 -5.473588 30.419205 -7.190823 1.735924 1e-06 -8.162922 1e-06 -1.8619 -22.861467 -6.16794 -1e-06 -2e-06 -0.0 161.387863 0.297873 -1.516398 12.741528 -0.061672 0.095289 -71.141708 2.353871 -3.011918 -5.301928 1.363279 2.085566 -0.999998 -0.0 0.0 -12.810674 -10.512715 -16.322424 15.183768 0.056392 -0.052002 -75.468773 -8.161506 -12.774354 -5.526388 0.69561 1.656239 -1.000001 0.0 -0.0 
0.0 0.0 0.0 0.0 -0.0 0.0 6.312893 100.188354 -0.70438 89.551498 -8.068744 104.787292 2.404853 0.546983 0.590779 -10.49854 0.247532 1.87691 20.160774 1.000895 0.034846 21.148048 -1.885012 2.422537 -2.426108 -1.151957 -2.244707 -27.175869 -1.511219 -3.605809 5e-06 -0.0 -0.0 -0.091661 0.029345 0.003109 0.068224 0.053633 0.047331 0.088099 -0.005653 -0.043894 -159.977005 -82.6549 173.998245 48.837036 -8.387592 -40.374817 30.386295 -1.602375 -0.617121 -1.928665 17.381863 -69.905273 17.636631 -26.322735 52.411205 -19.466665 -14.395594 29.410395 -1e-06 -8.77482 -3e-06 16.748539 -16.457829 5.565935 -0.609776 -1.795657 -3.889328 -4.807088 -11.046809 -2.937852 6e-06 -20.976015 0.0 -5.019967 -25.033556 -4.031884 6e-06 -1e-06 0.0 -10.634532 -5.68697 -3.56559 10.573275 -17.922947 -3.113901 4e-06 -13.821208 -1e-06 -0.501773 -31.181498 -4.027017 -11.379473 -60.08271 7.526691 -13.982712 -7.150198 -2.875046 13.772727 -8.401492 -3.218241 0.347738 -34.211544 0.771652 -0.963028 -17.733366 2.621021 -0.0 -1e-06 0.0 -17.346415 -20.095215 -4.201787 21.757555 -1.638374 3.866429 2e-06 -6.338822 1e-06 -1.697587 -22.591742 -6.194005 0.0 -4e-06 -1e-06 -121.213303 -77.905464 -48.016106 82.443161 -24.86791 -18.041418 53.832047 0.691654 0.453605 12.620676 10.086147 -47.536564 22.182116 -20.375891 49.933308 -16.701813 -16.743528 28.476526 -5e-06 -12.6906 1e-06 16.081722 -16.998009 2.764668 -0.105919 -1.513855 -4.275881 -5.039039 -5.612869 -2.953556 5e-06 -11.02052 -2e-06 -6.111294 -15.895328 -3.840472 0.0 -1e-06 1e-06 -10.283369 -5.680287 -4.341838 11.028296 -11.302406 -2.372632 -1.384268 -14.23858 -6.32012 -0.625436 -26.924187 -3.8276 -4.478122 -50.070389 -2.405107 -13.708525 -7.363474 -3.720939 18.141148 -14.052739 -3.242673 7e-06 -18.787268 -3e-06 -0.429711 -8.456039 2.555503 0.0 0.0 0.0 -15.923532 -20.094481 -5.473583 30.41921 -7.190828 1.735924 2e-06 -8.162925 0.0 -1.861901 -22.861471 -6.167941 -0.0 -3e-06 -2e-06 161.224823 0.285848 -1.682384 12.878214 -0.062014 0.10458 -71.204117 2.450131 -2.874125 -5.230512 1.336919 2.080877 -1.0 0.0 -0.0 -12.91441 -10.571048 -16.389475 15.168673 0.049795 -0.071471 -75.381096 -8.11374 -12.834632 -5.477893 0.687907 1.651796 -1.000001 -0.0 0.0 
